<?xml version="1.0" encoding="UTF-8"?> <svg xmlns="http://www.w3.org/2000/svg" width="109" height="109" viewBox="0 0 109 109" fill="none"><path d="M16.7005 69.2646H92.3241L101.616 66.2176L106.25 51.676L102.657 41.6678L93.0427 34.3351L90.4657 17.6135L81.1986 5.64824L67.4714 0.990967L51.9601 6.04461L42.47 14.5169L37.2914 16.8951L26.3393 19.5705L18.8067 28.6621L18.1872 33.3937L6.41752 41.6678L3.02289 54.2524L9.83694 70.4537L13.9501 71.1969L16.7005 69.2646Z" fill="white"></path><path d="M77.8785 93.4676L71.783 100.503L56.2965 106.275L40.8101 102.559L30.4775 90.7674V58.9097H77.8785V93.4676Z" fill="#FF5800"></path><path d="M54.5125 85.2183C58.0295 85.2183 60.8805 82.3679 60.8805 78.8517C60.8805 75.3355 58.0295 72.4851 54.5125 72.4851C50.9955 72.4851 48.1445 75.3355 48.1445 78.8517C48.1445 82.3679 50.9955 85.2183 54.5125 85.2183Z" fill="white"></path><path d="M16.2546 73.8971C16.1059 73.8971 15.9573 73.8723 15.7838 73.8475C6.49193 72.0144 0 63.6164 0 53.41C0 43.8725 6.44237 35.5737 15.6847 33.245C16.1803 33.1212 16.5519 32.6505 16.5519 32.1302V32.0312C16.5519 21.9982 24.7536 13.8232 34.8384 13.8232C36.2507 13.8232 37.6383 13.9718 39.0011 14.2939C39.1003 14.3186 39.1746 14.3186 39.2737 14.3186C39.6702 14.3186 40.017 14.1205 40.2401 13.7736C45.6417 5.1775 55.008 0 65.2414 0C81.5456 0 94.8268 13.2286 94.8268 29.4796C94.8268 30.5448 94.7524 31.6348 94.6285 32.7248C94.579 33.245 94.8763 33.7405 95.3719 33.9139C103.524 36.9362 109 44.7643 109 53.4348C109 63.6412 102.632 71.6923 93.1666 73.4512C93.0427 73.476 92.8941 73.476 92.7454 73.476C91.6056 73.476 90.6392 72.6832 90.441 71.5685C90.218 70.305 91.0357 69.0912 92.2994 68.8435C99.4851 67.5057 104.317 61.3125 104.317 53.4348C104.317 45.78 98.8656 39.1409 91.3578 37.6298C90.7383 37.5059 90.1932 37.1343 89.8711 36.6141C89.5242 36.0939 89.4003 35.4498 89.549 34.8305C89.9454 33.0468 90.1437 31.2632 90.1437 29.4796C90.1437 15.805 78.9686 4.68205 65.2414 4.68205C55.7513 4.68205 47.2276 9.95864 42.9657 18.4557C42.5692 19.2484 41.7515 19.7439 40.8843 19.7439C40.587 19.7439 40.2896 19.6943 39.9923 19.5705C38.3321 18.9016 36.5976 18.5548 34.8136 18.5548C27.3058 18.5548 21.2103 24.6241 21.2103 32.1055C21.2103 32.9477 21.2846 33.79 21.4581 34.6323C21.582 35.2764 21.4333 35.9452 21.0368 36.4655C20.6404 36.9857 20.0457 37.3325 19.3767 37.3821C11.0016 38.15 4.68311 45.0616 4.68311 53.4348C4.68311 61.4859 9.51489 67.8525 16.7006 69.2894C17.9643 69.5371 18.782 70.7757 18.5342 72.0391C18.336 73.1044 17.3696 73.8971 16.2546 73.8971Z" fill="#949D9E"></path><path d="M54.5124 95.0777C53.2239 95.0777 52.1832 94.0372 52.1832 92.749V88.6368C52.1832 88.1661 51.8859 87.7202 51.4151 87.5715C47.6984 86.2586 45.2205 82.7409 45.2205 78.8515C45.2205 73.7236 49.3833 69.5618 54.5124 69.5618C59.6415 69.5618 63.8043 73.7236 63.8043 78.8515C63.8043 82.7409 61.3017 86.2586 57.6097 87.5715C57.1637 87.745 56.8416 88.1661 56.8416 88.6368V92.749C56.8416 94.0372 55.8009 95.0777 54.5124 95.0777ZM54.5124 74.219C51.9602 74.219 49.9036 76.3 49.9036 78.8268C49.9036 81.3536 51.985 83.4345 54.5124 83.4345C57.0646 83.4345 59.1212 81.3536 59.1212 78.8268C59.1212 76.3 57.0646 74.219 54.5124 74.219Z" fill="#949D9E"></path><path d="M54.5123 109C39.794 109 27.826 97.0347 27.826 82.3197V57.9681C27.826 56.6799 28.8667 55.6395 30.1552 55.6395H36.6471C37.2666 55.6395 37.787 55.1192 37.787 54.4999V50.5611C37.787 41.0979 45.493 33.3936 54.9584 33.3936C64.4237 33.3936 72.1298 41.0979 72.1298 50.5611V54.4999C72.1298 55.1192 72.6501 55.6395 73.2696 55.6395H78.8447C80.1332 55.6395 81.1739 56.6799 81.1739 57.9681V82.3197C81.1986 97.0347 69.2307 109 54.5123 109ZM33.649 60.3215C33.0295 60.3215 32.5092 60.8417 32.5092 61.4611V82.3197C32.5092 94.4584 42.3957 104.318 54.5123 104.318C66.629 104.318 76.5155 94.4336 76.5155 82.3197V61.4611C76.5155 60.8417 75.9952 60.3215 75.3757 60.3215H33.649ZM54.9831 38.0508C48.0947 38.0508 42.4701 43.6495 42.4701 50.5611V54.4999C42.4701 55.1192 42.9904 55.6395 43.6099 55.6395H66.3316C66.9511 55.6395 67.4714 55.1192 67.4714 54.4999V50.5611C67.4714 43.6742 61.8715 38.0508 54.9831 38.0508Z" fill="#949D9E"></path></svg> 