<?xml version="1.0" encoding="UTF-8"?> <svg xmlns="http://www.w3.org/2000/svg" width="109" height="109" viewBox="0 0 109 109" fill="none"><path d="M106.201 4.18262H2.60071V43.8984H106.201V4.18262Z" fill="#FF5800"></path><path d="M106.226 65.9747H3.64075V104.818H106.226V65.9747Z" fill="white"></path><path d="M5.82027 47.7171C2.60055 47.7171 0 43.8619 0 39.1702V8.54689C0 3.81882 2.60055 0 5.82027 0H103.18C106.375 0 108.975 3.81882 108.975 8.54689V39.1702C108.975 43.8619 106.375 47.7171 103.155 47.7171H5.82027ZM5.82027 6.87388C5.20109 6.87388 4.68098 7.63764 4.68098 8.54689V39.1702C4.68098 40.0794 5.20109 40.8432 5.82027 40.8432H103.155C103.774 40.8432 104.294 40.0794 104.294 39.1702V8.54689C104.294 8.11045 104.17 7.67401 103.972 7.34669C103.749 7.01936 103.477 6.87388 103.155 6.87388H5.82027Z" fill="#949D9E"></path><path d="M95.0809 20.4398H13.9191V27.3137H95.0809V20.4398Z" fill="#949D9E"></path><path d="M5.82027 108.964C2.60055 108.964 0 105.145 0 100.453V69.8298C0 65.1382 2.60055 61.283 5.82027 61.283H103.18C106.375 61.283 109 65.1018 109 69.8298V100.453C109 105.145 106.399 109 103.18 109H5.82027V108.964ZM5.82027 68.1205C5.20109 68.1205 4.68098 68.8842 4.68098 69.7935V100.417C4.68098 101.326 5.20109 102.09 5.82027 102.09H103.155C103.774 102.09 104.294 101.326 104.294 100.417V69.7935C104.294 69.357 104.17 68.9206 103.972 68.5933C103.749 68.2659 103.477 68.1205 103.155 68.1205H5.82027Z" fill="#949D9E"></path><path d="M18.6 81.6863H13.9191V88.5602H18.6V81.6863Z" fill="#949D9E"></path><path d="M32.4943 81.6863H27.8134V88.5602H32.4943V81.6863Z" fill="#949D9E"></path><path d="M46.4135 81.6863H41.7325V88.5602H46.4135V81.6863Z" fill="#949D9E"></path><path d="M60.3078 81.6863H55.6268V88.5602H60.3078V81.6863Z" fill="#949D9E"></path><path d="M74.2269 81.6863H69.5459V88.5602H74.2269V81.6863Z" fill="#949D9E"></path></svg> 