<?xml version="1.0" encoding="UTF-8"?> <svg xmlns="http://www.w3.org/2000/svg" width="109" height="109" viewBox="0 0 109 109" fill="none"><path d="M44.0673 51.2053C53.8228 51.2053 61.7312 40.2251 61.7312 26.6803C61.7312 13.1355 53.8228 2.15527 44.0673 2.15527C34.3118 2.15527 26.4034 13.1355 26.4034 26.6803C26.4034 40.2251 34.3118 51.2053 44.0673 51.2053Z" fill="white"></path><path d="M28.6826 62.7989C24.3224 69.8096 18.9712 70.7758 13.8182 70.7758C13.3475 70.7758 12.8768 70.7758 12.4308 70.751H11.4647C10.8205 70.751 9.82957 70.8996 8.76428 72.1878C4.77567 76.9937 3.85903 91.9069 4.28019 103.228C4.30496 103.847 4.75089 104.318 5.29592 104.318H79.9153C80.4603 104.318 80.9062 103.847 80.931 103.228C81.3274 91.9069 80.4108 76.9689 76.4469 72.1878C75.3816 70.8996 74.3907 70.751 73.7466 70.751H72.7804C72.3344 70.751 71.8637 70.7758 71.393 70.7758C66.24 70.7758 60.8641 69.8096 56.5038 62.7989C56.3304 62.5264 56.2313 62.2539 56.1818 61.9567C52.4409 65.4992 47.6595 67.6296 42.4322 67.6296C37.3287 67.6296 32.6464 65.5735 28.9551 62.1796C28.856 62.3778 28.8065 62.6008 28.6826 62.7989Z" fill="#FF5800"></path><path d="M58.5353 61.8326H106.968V86.1843L96.2166 102.807L84.4489 106.201L69.2872 103.525L59.1299 89.3799L58.5353 61.8326Z" fill="white"></path><path d="M89.2552 78.8518C89.2552 82.6668 86.1584 85.7881 82.3184 85.7881C78.5032 85.7881 75.3817 82.6916 75.3817 78.8518C75.3817 75.0368 78.4785 71.9154 82.3184 71.9154C86.1584 71.9154 89.2552 75.012 89.2552 78.8518Z" fill="#FF5800"></path><path d="M44.0672 53.3605C33.018 53.3605 24.347 40.1071 24.347 23.2121C24.347 2.25432 38.1462 0 44.0672 0C49.9882 0 63.7873 2.25432 63.7873 23.2121C63.7873 40.1071 55.1412 53.3605 44.0672 53.3605ZM44.0672 4.68205C37.2048 4.68205 29.0293 7.90251 29.0293 23.2121C29.0293 37.0353 35.9165 48.7032 44.0672 48.7032C52.2178 48.7032 59.105 37.0353 59.105 23.2121C59.1298 7.87773 50.9544 4.68205 44.0672 4.68205Z" fill="#949D9E"></path><path d="M82.3183 95.0777C81.0301 95.0777 79.9896 94.0372 79.9896 92.749V88.6368C79.9896 88.1661 79.6923 87.7202 79.2216 87.5715C75.5055 86.2586 73.0281 82.7409 73.0281 78.8515C73.0281 73.7236 77.1901 69.5618 82.3183 69.5618C87.4466 69.5618 91.6086 73.7236 91.6086 78.8515C91.6086 82.7409 89.1064 86.2586 85.4151 87.5715C84.9692 87.745 84.6471 88.1661 84.6471 88.6368V92.749C84.6719 94.0372 83.6066 95.0777 82.3183 95.0777ZM82.3183 74.219C79.7666 74.219 77.7104 76.3 77.7104 78.8268C77.7104 81.3536 79.7914 83.4345 82.3183 83.4345C84.8701 83.4345 86.9263 81.3536 86.9263 78.8268C86.9263 76.3 84.8701 74.219 82.3183 74.219Z" fill="#949D9E"></path><path d="M106.671 59.1078H99.7097C99.0904 59.1078 98.5701 58.5875 98.5701 57.9682C98.5701 49.0005 91.2866 41.7173 82.3184 41.7173C73.3502 41.7173 66.0666 49.0005 66.0666 57.9682C66.0666 58.5875 65.5463 59.1078 64.927 59.1078H57.9655C56.6772 59.1078 55.6367 60.1482 55.6367 61.4364V82.295C55.6367 91.4362 60.2447 99.4873 67.2558 104.293H23.3562C22.7368 104.293 22.2166 103.773 22.2166 103.154V89.2314C22.2166 87.9432 21.1761 86.9028 19.8878 86.9028C18.5996 86.9028 17.5591 87.9432 17.5591 89.2314V103.154C17.5591 103.773 17.0388 104.293 16.4195 104.293H5.86572C5.24637 104.293 4.75089 103.798 4.72612 103.178C4.35451 91.8326 5.49411 76.8946 9.95344 72.1134C11.1426 70.8253 12.2326 70.7014 12.9511 70.7014H15.1312C20.4576 70.7014 24.8426 70.1068 28.8065 62.4768C29.401 61.3373 28.9551 59.9253 27.8155 59.3307C27.4687 59.1573 27.1218 59.0582 26.7255 59.0582C25.8584 59.0582 25.0656 59.5289 24.6444 60.3216C22.0927 65.2514 19.863 66.0441 15.5524 66.0441C15.1312 66.0441 14.6605 66.0441 14.1898 66.0441H12.9015C10.4985 66.0441 8.2688 67.0598 6.48507 68.9425C-1.46739 77.5387 0.0438268 103.847 0.242019 106.82C0.316341 108.034 1.33208 109 2.57078 109H82.7395C82.7891 109 82.8386 108.975 82.8882 108.975C97.3314 108.653 109 96.8366 109 82.3198V61.4612C109 60.173 107.959 59.1078 106.671 59.1078ZM82.3184 46.3993C88.7101 46.3993 93.8878 51.6016 93.8878 57.9682C93.8878 58.5875 93.3676 59.1078 92.7482 59.1078H71.8885C71.2692 59.1078 70.7489 58.5875 70.7489 57.9682C70.7489 51.6016 75.9514 46.3993 82.3184 46.3993ZM104.318 82.3198C104.318 94.4585 94.4576 104.318 82.3184 104.318C70.1791 104.318 60.319 94.4337 60.319 82.3198V64.9293C60.319 64.31 60.8393 63.7898 61.4586 63.7898H103.178C103.797 63.7898 104.318 64.31 104.318 64.9293V82.3198Z" fill="#949D9E"></path></svg> 