<?xml version="1.0" encoding="UTF-8"?> <svg xmlns="http://www.w3.org/2000/svg" width="117" height="117" viewBox="0 0 117 117" fill="none"><g filter="url(#filter0_d_567_137)"><path d="M48.0673 51.2053C57.8228 51.2053 65.7312 40.2251 65.7312 26.6803C65.7312 13.1355 57.8228 2.15527 48.0673 2.15527C38.3118 2.15527 30.4034 13.1355 30.4034 26.6803C30.4034 40.2251 38.3118 51.2053 48.0673 51.2053Z" fill="white"></path><path d="M32.6826 62.7989C28.3224 69.8096 22.9712 70.7758 17.8182 70.7758C17.3475 70.7758 16.8768 70.7758 16.4308 70.751H15.4647C14.8205 70.751 13.8296 70.8996 12.7643 72.1878C8.77567 76.9937 7.85903 91.9069 8.28019 103.228C8.30496 103.847 8.75089 104.318 9.29592 104.318H83.9153C84.4603 104.318 84.9062 103.847 84.931 103.228C85.3274 91.9069 84.4108 76.9689 80.4469 72.1878C79.3816 70.8996 78.3907 70.751 77.7466 70.751H76.7804C76.3344 70.751 75.8637 70.7758 75.393 70.7758C70.24 70.7758 64.8641 69.8096 60.5038 62.7989C60.3304 62.5264 60.2313 62.2539 60.1818 61.9567C56.4409 65.4992 51.6595 67.6296 46.4322 67.6296C41.3287 67.6296 36.6464 65.5735 32.9551 62.1796C32.856 62.3778 32.8065 62.6008 32.6826 62.7989Z" fill="#FF5800"></path><path d="M62.5353 61.8326H110.968V86.1843L100.217 102.807L88.4489 106.201L73.2872 103.525L63.1299 89.3799L62.5353 61.8326Z" fill="white"></path><path d="M93.2552 78.8518C93.2552 82.6668 90.1584 85.7881 86.3184 85.7881C82.5032 85.7881 79.3817 82.6916 79.3817 78.8518C79.3817 75.0368 82.4785 71.9154 86.3184 71.9154C90.1584 71.9154 93.2552 75.012 93.2552 78.8518Z" fill="#FF5800"></path><path d="M48.0672 53.3605C37.018 53.3605 28.347 40.1071 28.347 23.2121C28.347 2.25432 42.1462 0 48.0672 0C53.9882 0 67.7873 2.25432 67.7873 23.2121C67.7873 40.1071 59.1412 53.3605 48.0672 53.3605ZM48.0672 4.68205C41.2048 4.68205 33.0293 7.90251 33.0293 23.2121C33.0293 37.0353 39.9165 48.7032 48.0672 48.7032C56.2178 48.7032 63.105 37.0353 63.105 23.2121C63.1298 7.87773 54.9544 4.68205 48.0672 4.68205Z" fill="#949D9E"></path><path d="M86.3183 95.0777C85.0301 95.0777 83.9896 94.0372 83.9896 92.749V88.6368C83.9896 88.1661 83.6923 87.7202 83.2216 87.5715C79.5055 86.2586 77.0281 82.7409 77.0281 78.8515C77.0281 73.7236 81.1901 69.5618 86.3183 69.5618C91.4466 69.5618 95.6086 73.7236 95.6086 78.8515C95.6086 82.7409 93.1064 86.2586 89.4151 87.5715C88.9692 87.745 88.6471 88.1661 88.6471 88.6368V92.749C88.6719 94.0372 87.6066 95.0777 86.3183 95.0777ZM86.3183 74.219C83.7666 74.219 81.7104 76.3 81.7104 78.8268C81.7104 81.3536 83.7914 83.4345 86.3183 83.4345C88.8701 83.4345 90.9263 81.3536 90.9263 78.8268C90.9263 76.3 88.8701 74.219 86.3183 74.219Z" fill="#949D9E"></path><path d="M110.671 59.1078H103.71C103.09 59.1078 102.57 58.5875 102.57 57.9682C102.57 49.0005 95.2866 41.7173 86.3184 41.7173C77.3502 41.7173 70.0666 49.0005 70.0666 57.9682C70.0666 58.5875 69.5463 59.1078 68.927 59.1078H61.9655C60.6772 59.1078 59.6367 60.1482 59.6367 61.4364V82.295C59.6367 91.4362 64.2447 99.4873 71.2558 104.293H27.3562C26.7368 104.293 26.2166 103.773 26.2166 103.154V89.2314C26.2166 87.9432 25.1761 86.9028 23.8878 86.9028C22.5996 86.9028 21.5591 87.9432 21.5591 89.2314V103.154C21.5591 103.773 21.0388 104.293 20.4195 104.293H9.86572C9.24637 104.293 8.75089 103.798 8.72612 103.178C8.35451 91.8326 9.49411 76.8946 13.9534 72.1134C15.1426 70.8253 16.2326 70.7014 16.9511 70.7014H19.1312C24.4576 70.7014 28.8426 70.1068 32.8065 62.4768C33.401 61.3373 32.9551 59.9253 31.8155 59.3307C31.4687 59.1573 31.1218 59.0582 30.7255 59.0582C29.8584 59.0582 29.0656 59.5289 28.6444 60.3216C26.0927 65.2514 23.863 66.0441 19.5524 66.0441C19.1312 66.0441 18.6605 66.0441 18.1898 66.0441H16.9015C14.4985 66.0441 12.2688 67.0598 10.4851 68.9425C2.53261 77.5387 4.04383 103.847 4.24202 106.82C4.31634 108.034 5.33208 109 6.57078 109H86.7395C86.7891 109 86.8386 108.975 86.8882 108.975C101.331 108.653 113 96.8366 113 82.3198V61.4612C113 60.173 111.959 59.1078 110.671 59.1078ZM86.3184 46.3993C92.7101 46.3993 97.8878 51.6016 97.8878 57.9682C97.8878 58.5875 97.3676 59.1078 96.7482 59.1078H75.8885C75.2692 59.1078 74.7489 58.5875 74.7489 57.9682C74.7489 51.6016 79.9514 46.3993 86.3184 46.3993ZM108.318 82.3198C108.318 94.4585 98.4576 104.318 86.3184 104.318C74.1791 104.318 64.319 94.4337 64.319 82.3198V64.9293C64.319 64.31 64.8393 63.7898 65.4586 63.7898H107.178C107.797 63.7898 108.318 64.31 108.318 64.9293V82.3198Z" fill="#949D9E"></path></g><defs><filter id="filter0_d_567_137" x="0" y="0" width="117" height="117" filterUnits="userSpaceOnUse" color-interpolation-filters="sRGB"><feFlood flood-opacity="0" result="BackgroundImageFix"></feFlood><feColorMatrix in="SourceAlpha" type="matrix" values="0 0 0 0 0 0 0 0 0 0 0 0 0 0 0 0 0 0 127 0" result="hardAlpha"></feColorMatrix><feOffset dy="4"></feOffset><feGaussianBlur stdDeviation="2"></feGaussianBlur><feComposite in2="hardAlpha" operator="out"></feComposite><feColorMatrix type="matrix" values="0 0 0 0 0 0 0 0 0 0 0 0 0 0 0 0 0 0 0.25 0"></feColorMatrix><feBlend mode="normal" in2="BackgroundImageFix" result="effect1_dropShadow_567_137"></feBlend><feBlend mode="normal" in="SourceGraphic" in2="effect1_dropShadow_567_137" result="shape"></feBlend></filter></defs></svg> 