<?xml version="1.0" encoding="UTF-8"?> <svg xmlns="http://www.w3.org/2000/svg" width="109" height="109" viewBox="0 0 109 109" fill="none"><path d="M106.027 3.81506H3.5426V65.4496H106.027V3.81506Z" fill="#FF5800"></path><path d="M106.027 66.515H3.5426V84.6239H106.027V66.515Z" fill="white"></path><path d="M40.1319 86.9521L39.141 99.3384L34.8058 106.002H73.9715L68.8683 93.1452V85.8868L40.1319 86.9521Z" fill="white"></path><path d="M38.9426 24.6242C38.9426 29.6035 36.5644 33.6415 33.6412 33.6415C30.718 33.6415 28.3398 29.6035 28.3398 24.6242C28.3398 19.6449 30.718 15.6069 33.6412 15.6069C36.5644 15.6069 38.9426 19.6201 38.9426 24.6242Z" fill="white"></path><path d="M46.5478 35.1771C43.6742 38.2489 38.9674 40.2555 33.6412 40.2555C28.2903 40.2555 23.5587 38.2242 20.7099 35.1523L18.9758 37.2333L16.5976 51.973H49.4215L50.239 46.0771L46.5478 35.1771Z" fill="white"></path><path d="M26.6802 109C25.392 109 24.3516 107.96 24.3516 106.671C24.3516 105.383 25.392 104.343 26.6802 104.343H32.6505C32.8982 104.343 33.1459 104.268 33.3441 104.095C34.8057 102.955 38.2491 99.19 38.2491 89.2809C38.2491 88.6616 37.7289 88.1414 37.1095 88.1414H8.34841C3.74068 88.1414 0 84.4007 0 79.793V8.34841C0 3.74068 3.74068 0 8.34841 0H100.652C105.259 0 109 3.74068 109 8.34841V79.793C109 84.4007 105.259 88.1414 100.652 88.1414H71.8905C71.2711 88.1414 70.7509 88.6616 70.7509 89.2809C70.7509 99.2148 74.1448 102.955 75.6064 104.095C75.8046 104.244 76.0523 104.343 76.3 104.343H82.3198C83.608 104.343 84.6484 105.383 84.6484 106.671C84.6484 107.96 83.608 109 82.3198 109H26.6802ZM44.0707 88.1414C43.4514 88.1414 42.9311 88.6616 42.9311 89.2809C42.9311 94.6318 42.0393 99.1405 40.2557 102.683C40.0823 103.03 40.107 103.451 40.3052 103.798C40.5034 104.145 40.875 104.343 41.2714 104.343H67.7039C68.1002 104.343 68.4718 104.145 68.67 103.798C68.8682 103.451 68.893 103.03 68.7195 102.683C66.9607 99.1405 66.0441 94.6318 66.0441 89.2809C66.0441 88.6616 65.5239 88.1414 64.9045 88.1414H44.0707ZM5.82159 67.258C5.20227 67.258 4.68205 67.7782 4.68205 68.3975V79.7682C4.68205 81.7995 6.34182 83.4345 8.34841 83.4345H100.652C102.683 83.4345 104.318 81.7748 104.318 79.7682V68.3975C104.318 67.7782 103.798 67.258 103.178 67.258H5.82159ZM8.34841 4.68205C6.31705 4.68205 4.68205 6.34182 4.68205 8.34841V61.4611C4.68205 62.0805 5.20227 62.6007 5.82159 62.6007H103.203C103.823 62.6007 104.343 62.0805 104.343 61.4611V8.34841C104.343 6.31705 102.683 4.68205 100.676 4.68205H8.34841Z" fill="#949D9E"></path><path d="M67.2828 38.2489H62.6007V42.9309H67.2828V38.2489Z" fill="#949D9E"></path><path d="M81.1802 38.2489H76.4982V42.9309H81.1802V38.2489Z" fill="#949D9E"></path><path d="M95.1025 38.2489H90.4204V42.9309H95.1025V38.2489Z" fill="#949D9E"></path><path d="M95.1025 24.3514H62.6007V29.0335H95.1025V24.3514Z" fill="#949D9E"></path><path d="M16.2509 53.3605C14.9627 53.3605 13.9222 52.3201 13.9222 51.0319C13.9222 44.591 15.4086 38.8437 17.9107 35.6728C18.3566 35.103 19.0254 34.781 19.7438 34.781C20.2641 34.781 20.7595 34.9544 21.1807 35.2765C21.6761 35.6728 21.9734 36.2178 22.0477 36.8371C22.122 37.4565 21.9486 38.0758 21.5522 38.5712C20.5118 39.909 19.2236 42.9312 18.7529 47.4399C18.7282 47.7371 18.8272 48.0592 19.0502 48.3069C19.2732 48.5546 19.5704 48.6785 19.8925 48.6785H47.3654C47.6875 48.6785 47.9847 48.5299 48.2077 48.3069C48.4307 48.0592 48.5297 47.7371 48.505 47.4151C48.0343 42.9065 46.7461 39.8842 45.7057 38.5465C45.3093 38.051 45.1359 37.4317 45.2102 36.8124C45.2845 36.193 45.6066 35.648 46.0772 35.2517C46.4984 34.9296 46.9938 34.7562 47.5141 34.7562C48.2325 34.7562 48.9013 35.0783 49.3472 35.648C51.8493 38.819 53.3357 44.5662 53.3357 51.0071C53.3357 52.2953 52.2952 53.3358 51.007 53.3358H16.2509V53.3605Z" fill="#949D9E"></path><path d="M33.6413 35.97C28.2408 35.97 24.3515 28.34 24.3515 23.212C24.3515 18.0841 28.5133 13.9222 33.6413 13.9222C38.7692 13.9222 42.931 18.0841 42.931 23.212C42.931 28.34 39.017 35.97 33.6413 35.97ZM33.6413 18.5795C31.0897 18.5795 29.0335 20.6604 29.0335 23.1872C29.0335 26.1352 31.4365 30.9907 33.5174 31.2632C33.567 31.2632 33.6165 31.2632 33.666 31.2632C33.7156 31.2632 33.7651 31.2632 33.8147 31.2632C35.8708 30.9659 38.2738 26.1352 38.2738 23.1872C38.249 20.6604 36.1929 18.5795 33.6413 18.5795Z" fill="#949D9E"></path></svg> 